<svg width="1041" height="434" viewBox="0 0 1041 434" fill="none" xmlns="http://www.w3.org/2000/svg">
<g filter="url(#filter0_f_762_642)">
<path d="M501 93.1955L1001 30L670.416 175.314L787.492 434L501 93.1955Z" fill="#F14413"/>
</g>
<path d="M56.6667 85.75C56.6667 94.2812 46.5139 109.484 42.0556 115.75C40.9861 117.25 39 117.25 37.9444 115.75C33.4861 109.484 23.3333 94.2812 23.3333 85.75C23.3333 75.3906 30.7917 67 40 67C49.2083 67 56.6667 75.3906 56.6667 85.75ZM57.7778 98.3125C58.2639 97.2344 58.7083 96.1562 59.1111 95.0938C59.1806 94.9062 59.25 94.7031 59.3194 94.5156L75.4306 87.2656C77.625 86.2812 80 88.0938 80 90.75V133.062C80 134.594 79.1667 135.969 77.9028 136.547L57.7778 145.594V98.3125ZM19.1111 88.6094C19.4444 90.8125 20.1111 93.0312 20.8889 95.0938C21.2917 96.1562 21.7361 97.2344 22.2222 98.3125V137.594L4.56944 145.547C2.375 146.531 0 144.719 0 142.062V99.75C0 98.2188 0.833333 96.8438 2.09722 96.2656L19.125 88.6094H19.1111ZM45.5278 118.875C47.4583 116.156 50.4861 111.734 53.3333 106.844V145.797L26.6667 137.219V106.844C29.5139 111.734 32.5417 116.156 34.4722 118.875C37.3194 122.875 42.6806 122.875 45.5278 118.875ZM40 90.75C41.4734 90.75 42.8865 90.0915 43.9284 88.9194C44.9702 87.7473 45.5556 86.1576 45.5556 84.5C45.5556 82.8424 44.9702 81.2527 43.9284 80.0806C42.8865 78.9085 41.4734 78.25 40 78.25C38.5266 78.25 37.1135 78.9085 36.0716 80.0806C35.0298 81.2527 34.4444 82.8424 34.4444 84.5C34.4444 86.1576 35.0298 87.7473 36.0716 88.9194C37.1135 90.0915 38.5266 90.75 40 90.75Z" fill="black"/>
<path d="M261.91 75.6C258.71 75.6 256.27 74.7 254.59 72.9C252.91 71.06 252.07 68.44 252.07 65.04V42.96C252.07 39.56 252.91 36.96 254.59 35.16C256.27 33.32 258.71 32.4 261.91 32.4C265.11 32.4 267.55 33.32 269.23 35.16C270.91 36.96 271.75 39.56 271.75 42.96V46.56H265.51V42.54C265.51 39.78 264.37 38.4 262.09 38.4C259.81 38.4 258.67 39.78 258.67 42.54V65.52C258.67 68.24 259.81 69.6 262.09 69.6C264.37 69.6 265.51 68.24 265.51 65.52V57.3H262.21V51.3H271.75V65.04C271.75 68.44 270.91 71.06 269.23 72.9C267.55 74.7 265.11 75.6 261.91 75.6ZM281.087 33H290.027L296.867 75H290.267L289.067 66.66V66.78H281.567L280.367 75H274.247L281.087 33ZM288.287 61.08L285.347 40.32H285.227L282.347 61.08H288.287ZM300.069 33H309.849C313.249 33 315.729 33.8 317.289 35.4C318.849 36.96 319.629 39.38 319.629 42.66V45.24C319.629 49.6 318.189 52.36 315.309 53.52V53.64C316.909 54.12 318.029 55.1 318.669 56.58C319.349 58.06 319.689 60.04 319.689 62.52V69.9C319.689 71.1 319.729 72.08 319.809 72.84C319.889 73.56 320.089 74.28 320.409 75H313.689C313.449 74.32 313.289 73.68 313.209 73.08C313.129 72.48 313.089 71.4 313.089 69.84V62.16C313.089 60.24 312.769 58.9 312.129 58.14C311.529 57.38 310.469 57 308.949 57H306.669V75H300.069V33ZM309.069 51C310.389 51 311.369 50.66 312.009 49.98C312.689 49.3 313.029 48.16 313.029 46.56V43.32C313.029 41.8 312.749 40.7 312.189 40.02C311.669 39.34 310.829 39 309.669 39H306.669V51H309.069ZM329.369 33H338.309L345.149 75H338.549L337.349 66.66V66.78H329.849L328.649 75H322.529L329.369 33ZM336.569 61.08L333.629 40.32H333.509L330.629 61.08H336.569ZM357.593 75.6C354.393 75.6 351.953 74.7 350.273 72.9C348.593 71.06 347.753 68.44 347.753 65.04V42.96C347.753 39.56 348.593 36.96 350.273 35.16C351.953 33.32 354.393 32.4 357.593 32.4C360.793 32.4 363.233 33.32 364.913 35.16C366.593 36.96 367.433 39.56 367.433 42.96V46.56H361.193V42.54C361.193 39.78 360.053 38.4 357.773 38.4C355.493 38.4 354.353 39.78 354.353 42.54V65.52C354.353 68.24 355.493 69.6 357.773 69.6C360.053 69.6 361.193 68.24 361.193 65.52V57.3H357.893V51.3H367.433V65.04C367.433 68.44 366.593 71.06 364.913 72.9C363.233 74.7 360.793 75.6 357.593 75.6ZM371.671 33H389.671V39H378.271V50.1H387.331V56.1H378.271V69H389.671V75H371.671V33ZM411.657 75.6C408.457 75.6 406.037 74.7 404.397 72.9C402.757 71.06 401.937 68.44 401.937 65.04V62.64H408.177V65.52C408.177 68.24 409.317 69.6 411.597 69.6C412.717 69.6 413.557 69.28 414.117 68.64C414.717 67.96 415.017 66.88 415.017 65.4C415.017 63.64 414.617 62.1 413.817 60.78C413.017 59.42 411.537 57.8 409.377 55.92C406.657 53.52 404.757 51.36 403.677 49.44C402.597 47.48 402.057 45.28 402.057 42.84C402.057 39.52 402.897 36.96 404.577 35.16C406.257 33.32 408.697 32.4 411.897 32.4C415.057 32.4 417.437 33.32 419.037 35.16C420.677 36.96 421.497 39.56 421.497 42.96V44.7H415.257V42.54C415.257 41.1 414.977 40.06 414.417 39.42C413.857 38.74 413.037 38.4 411.957 38.4C409.757 38.4 408.657 39.74 408.657 42.42C408.657 43.94 409.057 45.36 409.857 46.68C410.697 48 412.197 49.6 414.357 51.48C417.117 53.88 419.017 56.06 420.057 58.02C421.097 59.98 421.617 62.28 421.617 64.92C421.617 68.36 420.757 71 419.037 72.84C417.357 74.68 414.897 75.6 411.657 75.6ZM425.401 33H432.001V75H425.401V33ZM442.104 39H435.204V33H455.604V39H448.704V75H442.104V39ZM468.4 75.6C465.2 75.6 462.76 74.7 461.08 72.9C459.4 71.06 458.56 68.44 458.56 65.04V33H465.16V65.52C465.16 66.96 465.44 68 466 68.64C466.6 69.28 467.44 69.6 468.52 69.6C469.6 69.6 470.42 69.28 470.98 68.64C471.58 68 471.88 66.96 471.88 65.52V33H478.24V65.04C478.24 68.44 477.4 71.06 475.72 72.9C474.04 74.7 471.6 75.6 468.4 75.6ZM482.94 33H500.94V39H489.54V50.1H498.6V56.1H489.54V69H500.94V75H482.94V33ZM519.447 33H528.387L535.227 75H528.627L527.427 66.66V66.78H519.927L518.727 75H512.607L519.447 33ZM526.647 61.08L523.707 40.32H523.587L520.707 61.08H526.647ZM547.912 75.6C544.712 75.6 542.272 74.7 540.592 72.9C538.912 71.06 538.072 68.44 538.072 65.04V33H544.672V65.52C544.672 66.96 544.952 68 545.512 68.64C546.112 69.28 546.952 69.6 548.032 69.6C549.112 69.6 549.932 69.28 550.492 68.64C551.092 68 551.392 66.96 551.392 65.52V33H557.752V65.04C557.752 68.44 556.912 71.06 555.232 72.9C553.552 74.7 551.112 75.6 547.912 75.6ZM572.062 45.78H578.422V52.14H572.062V45.78ZM572.062 68.64H578.422V75H572.062V68.64ZM183.904 142.44C183.904 139.44 184.384 136.88 185.344 134.76C186.304 132.6 188.024 130.22 190.504 127.62C192.944 125.02 194.624 122.8 195.544 120.96C196.504 119.12 196.984 117.2 196.984 115.2C196.984 113.4 196.684 112.16 196.084 111.48C195.524 110.76 194.684 110.4 193.564 110.4C191.284 110.4 190.144 111.78 190.144 114.54V119.04H183.904V114.96C183.904 111.56 184.744 108.96 186.424 107.16C188.104 105.32 190.544 104.4 193.744 104.4C196.944 104.4 199.384 105.32 201.064 107.16C202.744 108.96 203.584 111.56 203.584 114.96C203.584 117.52 202.964 120.02 201.724 122.46C200.524 124.9 198.424 127.7 195.424 130.86C193.464 132.94 192.144 134.64 191.464 135.96C190.784 137.24 190.444 138.62 190.444 140.1V141H202.984V147H183.904V142.44ZM217.408 147.6C214.168 147.6 211.708 146.7 210.028 144.9C208.388 143.1 207.568 140.52 207.568 137.16V133.74H213.808V137.46C213.808 140.22 214.948 141.6 217.228 141.6C218.348 141.6 219.188 141.26 219.748 140.58C220.348 139.86 220.648 138.62 220.648 136.86V133.44C220.648 131.52 220.308 130.16 219.628 129.36C218.948 128.52 217.848 128.1 216.328 128.1H214.108V122.1H216.508C217.828 122.1 218.808 121.76 219.448 121.08C220.128 120.4 220.468 119.26 220.468 117.66V114.6C220.468 113.16 220.168 112.1 219.568 111.42C218.968 110.74 218.168 110.4 217.168 110.4C215.048 110.4 213.988 111.7 213.988 114.3V117.06H207.748V114.84C207.748 111.48 208.568 108.9 210.208 107.1C211.888 105.3 214.288 104.4 217.408 104.4C220.568 104.4 222.968 105.3 224.608 107.1C226.248 108.86 227.068 111.42 227.068 114.78V116.28C227.068 118.56 226.688 120.4 225.928 121.8C225.168 123.16 223.988 124.14 222.388 124.74V124.86C224.108 125.5 225.348 126.54 226.108 127.98C226.868 129.42 227.248 131.26 227.248 133.5V137.22C227.248 140.58 226.408 143.16 224.728 144.96C223.088 146.72 220.648 147.6 217.408 147.6ZM241.681 105H251.461C254.861 105 257.341 105.8 258.901 107.4C260.461 108.96 261.241 111.38 261.241 114.66V117.24C261.241 121.6 259.801 124.36 256.921 125.52V125.64C258.521 126.12 259.641 127.1 260.281 128.58C260.961 130.06 261.301 132.04 261.301 134.52V141.9C261.301 143.1 261.341 144.08 261.421 144.84C261.501 145.56 261.701 146.28 262.021 147H255.301C255.061 146.32 254.901 145.68 254.821 145.08C254.741 144.48 254.701 143.4 254.701 141.84V134.16C254.701 132.24 254.381 130.9 253.741 130.14C253.141 129.38 252.081 129 250.561 129H248.281V147H241.681V105ZM250.681 123C252.001 123 252.981 122.66 253.621 121.98C254.301 121.3 254.641 120.16 254.641 118.56V115.32C254.641 113.8 254.361 112.7 253.801 112.02C253.281 111.34 252.441 111 251.281 111H248.281V123H250.681ZM284.789 147.6C281.629 147.6 279.209 146.7 277.529 144.9C275.889 143.1 275.069 140.56 275.069 137.28V114.72C275.069 111.44 275.889 108.9 277.529 107.1C279.209 105.3 281.629 104.4 284.789 104.4C287.949 104.4 290.349 105.3 291.989 107.1C293.669 108.9 294.509 111.44 294.509 114.72V119.16H288.269V114.3C288.269 111.7 287.169 110.4 284.969 110.4C282.769 110.4 281.669 111.7 281.669 114.3V137.76C281.669 140.32 282.769 141.6 284.969 141.6C287.169 141.6 288.269 140.32 288.269 137.76V131.34H294.509V137.28C294.509 140.56 293.669 143.1 291.989 144.9C290.349 146.7 287.949 147.6 284.789 147.6ZM298.458 105H305.058V122.1H312.138V105H318.738V147H312.138V128.1H305.058V147H298.458V105ZM328.753 105H337.693L344.533 147H337.933L336.733 138.66V138.78H329.233L328.033 147H321.913L328.753 105ZM335.953 133.08L333.013 112.32H332.893L330.013 133.08H335.953ZM330.133 95.28H336.373L341.293 102.18H336.313L333.253 98.88L330.193 102.18H325.213L330.133 95.28ZM350.141 111H343.241V105H363.641V111H356.741V147H350.141V111ZM366.837 105H384.837V111H373.437V122.1H382.497V128.1H373.437V141H384.837V147H366.837V105ZM393.734 105H402.674L409.514 147H402.914L401.714 138.66V138.78H394.214L393.014 147H386.894L393.734 105ZM400.934 133.08L397.994 112.32H397.874L394.994 133.08H400.934ZM422.199 147.6C418.999 147.6 416.559 146.7 414.879 144.9C413.199 143.06 412.359 140.44 412.359 137.04V105H418.959V137.52C418.959 138.96 419.239 140 419.799 140.64C420.399 141.28 421.239 141.6 422.319 141.6C423.399 141.6 424.219 141.28 424.779 140.64C425.379 140 425.679 138.96 425.679 137.52V105H432.039V137.04C432.039 140.44 431.199 143.06 429.519 144.9C427.839 146.7 425.399 147.6 422.199 147.6ZM436.739 105H446.819C450.099 105 452.559 105.88 454.199 107.64C455.839 109.4 456.659 111.98 456.659 115.38V136.62C456.659 140.02 455.839 142.6 454.199 144.36C452.559 146.12 450.099 147 446.819 147H436.739V105ZM446.699 141C447.779 141 448.599 140.68 449.159 140.04C449.759 139.4 450.059 138.36 450.059 136.92V115.08C450.059 113.64 449.759 112.6 449.159 111.96C448.599 111.32 447.779 111 446.699 111H443.339V141H446.699ZM470.714 147.6C467.514 147.6 465.074 146.7 463.394 144.9C461.714 143.06 460.874 140.44 460.874 137.04V105H467.474V137.52C467.474 138.96 467.754 140 468.314 140.64C468.914 141.28 469.754 141.6 470.834 141.6C471.914 141.6 472.734 141.28 473.294 140.64C473.894 140 474.194 138.96 474.194 137.52V105H480.554V137.04C480.554 140.44 479.714 143.06 478.034 144.9C476.354 146.7 473.914 147.6 470.714 147.6ZM485.255 105H493.535L499.955 130.14H500.075V105H505.955V147H499.175L491.255 116.34H491.135V147H485.255V105ZM513.02 147H510.86V140.64H517.22V146.34L513.92 154.2H510.86L513.02 147ZM541.138 147.6C537.898 147.6 535.438 146.7 533.758 144.9C532.118 143.1 531.298 140.52 531.298 137.16V133.74H537.538V137.46C537.538 140.22 538.678 141.6 540.958 141.6C542.078 141.6 542.918 141.26 543.478 140.58C544.078 139.86 544.378 138.62 544.378 136.86V133.44C544.378 131.52 544.038 130.16 543.358 129.36C542.678 128.52 541.578 128.1 540.058 128.1H537.838V122.1H540.238C541.558 122.1 542.538 121.76 543.178 121.08C543.858 120.4 544.198 119.26 544.198 117.66V114.6C544.198 113.16 543.898 112.1 543.298 111.42C542.698 110.74 541.898 110.4 540.898 110.4C538.778 110.4 537.718 111.7 537.718 114.3V117.06H531.478V114.84C531.478 111.48 532.298 108.9 533.938 107.1C535.618 105.3 538.018 104.4 541.138 104.4C544.298 104.4 546.698 105.3 548.338 107.1C549.978 108.86 550.798 111.42 550.798 114.78V116.28C550.798 118.56 550.418 120.4 549.658 121.8C548.898 123.16 547.718 124.14 546.118 124.74V124.86C547.838 125.5 549.078 126.54 549.838 127.98C550.598 129.42 550.978 131.26 550.978 133.5V137.22C550.978 140.58 550.138 143.16 548.458 144.96C546.818 146.72 544.378 147.6 541.138 147.6ZM565.042 114.96H558.142V110.28C560.022 110.28 561.522 110.12 562.642 109.8C563.802 109.48 564.722 108.96 565.402 108.24C566.082 107.48 566.682 106.4 567.202 105H571.642V147H565.042V114.96ZM589.365 147.6C586.125 147.6 583.645 146.68 581.925 144.84C580.205 143 579.345 140.4 579.345 137.04V114.96C579.345 111.6 580.205 109 581.925 107.16C583.645 105.32 586.125 104.4 589.365 104.4C592.605 104.4 595.085 105.32 596.805 107.16C598.525 109 599.385 111.6 599.385 114.96V137.04C599.385 140.4 598.525 143 596.805 144.84C595.085 146.68 592.605 147.6 589.365 147.6ZM589.365 141.6C591.645 141.6 592.785 140.22 592.785 137.46V114.54C592.785 111.78 591.645 110.4 589.365 110.4C587.085 110.4 585.945 111.78 585.945 114.54V137.46C585.945 140.22 587.085 141.6 589.365 141.6ZM613.389 147.6C610.149 147.6 607.669 146.68 605.949 144.84C604.229 143 603.369 140.4 603.369 137.04V114.96C603.369 111.6 604.229 109 605.949 107.16C607.669 105.32 610.149 104.4 613.389 104.4C616.629 104.4 619.109 105.32 620.829 107.16C622.549 109 623.409 111.6 623.409 114.96V137.04C623.409 140.4 622.549 143 620.829 144.84C619.109 146.68 616.629 147.6 613.389 147.6ZM613.389 141.6C615.669 141.6 616.809 140.22 616.809 137.46V114.54C616.809 111.78 615.669 110.4 613.389 110.4C611.109 110.4 609.969 111.78 609.969 114.54V137.46C609.969 140.22 611.109 141.6 613.389 141.6ZM637.412 147.6C634.172 147.6 631.692 146.68 629.972 144.84C628.252 143 627.392 140.4 627.392 137.04V114.96C627.392 111.6 628.252 109 629.972 107.16C631.692 105.32 634.172 104.4 637.412 104.4C640.652 104.4 643.132 105.32 644.852 107.16C646.572 109 647.432 111.6 647.432 114.96V137.04C647.432 140.4 646.572 143 644.852 144.84C643.132 146.68 640.652 147.6 637.412 147.6ZM637.412 141.6C639.692 141.6 640.832 140.22 640.832 137.46V114.54C640.832 111.78 639.692 110.4 637.412 110.4C635.132 110.4 633.992 111.78 633.992 114.54V137.46C633.992 140.22 635.132 141.6 637.412 141.6ZM331.89 183H324.99V177H345.39V183H338.49V219H331.89V183ZM357.891 219.6C354.651 219.6 352.171 218.68 350.451 216.84C348.731 215 347.871 212.4 347.871 209.04V186.96C347.871 183.6 348.731 181 350.451 179.16C352.171 177.32 354.651 176.4 357.891 176.4C361.131 176.4 363.611 177.32 365.331 179.16C367.051 181 367.911 183.6 367.911 186.96V209.04C367.911 212.4 367.051 215 365.331 216.84C363.611 218.68 361.131 219.6 357.891 219.6ZM357.891 213.6C360.171 213.6 361.311 212.22 361.311 209.46V186.54C361.311 183.78 360.171 182.4 357.891 182.4C355.611 182.4 354.471 183.78 354.471 186.54V209.46C354.471 212.22 355.611 213.6 357.891 213.6ZM381.974 219.6C378.774 219.6 376.334 218.7 374.654 216.9C372.974 215.06 372.134 212.44 372.134 209.04V177H378.734V209.52C378.734 210.96 379.014 212 379.574 212.64C380.174 213.28 381.014 213.6 382.094 213.6C383.174 213.6 383.994 213.28 384.554 212.64C385.154 212 385.454 210.96 385.454 209.52V177H391.814V209.04C391.814 212.44 390.974 215.06 389.294 216.9C387.614 218.7 385.174 219.6 381.974 219.6ZM396.515 177H403.115V213H413.975V219H396.515V177ZM426.445 219.6C423.205 219.6 420.725 218.68 419.005 216.84C417.285 215 416.425 212.4 416.425 209.04V186.96C416.425 183.6 417.285 181 419.005 179.16C420.725 177.32 423.205 176.4 426.445 176.4C429.685 176.4 432.165 177.32 433.885 179.16C435.605 181 436.465 183.6 436.465 186.96V209.04C436.465 212.4 435.605 215 433.885 216.84C432.165 218.68 429.685 219.6 426.445 219.6ZM426.445 213.6C428.725 213.6 429.865 212.22 429.865 209.46V186.54C429.865 183.78 428.725 182.4 426.445 182.4C424.165 182.4 423.025 183.78 423.025 186.54V209.46C423.025 212.22 424.165 213.6 426.445 213.6ZM450.529 219.6C447.329 219.6 444.889 218.7 443.209 216.9C441.529 215.06 440.689 212.44 440.689 209.04V177H447.289V209.52C447.289 210.96 447.569 212 448.129 212.64C448.729 213.28 449.569 213.6 450.649 213.6C451.729 213.6 452.549 213.28 453.109 212.64C453.709 212 454.009 210.96 454.009 209.52V177H460.369V209.04C460.369 212.44 459.529 215.06 457.849 216.9C456.169 218.7 453.729 219.6 450.529 219.6ZM473.649 219.6C470.449 219.6 468.029 218.7 466.389 216.9C464.749 215.06 463.929 212.44 463.929 209.04V206.64H470.169V209.52C470.169 212.24 471.309 213.6 473.589 213.6C474.709 213.6 475.549 213.28 476.109 212.64C476.709 211.96 477.009 210.88 477.009 209.4C477.009 207.64 476.609 206.1 475.809 204.78C475.009 203.42 473.529 201.8 471.369 199.92C468.649 197.52 466.749 195.36 465.669 193.44C464.589 191.48 464.049 189.28 464.049 186.84C464.049 183.52 464.889 180.96 466.569 179.16C468.249 177.32 470.689 176.4 473.889 176.4C477.049 176.4 479.429 177.32 481.029 179.16C482.669 180.96 483.489 183.56 483.489 186.96V188.7H477.249V186.54C477.249 185.1 476.969 184.06 476.409 183.42C475.849 182.74 475.029 182.4 473.949 182.4C471.749 182.4 470.649 183.74 470.649 186.42C470.649 187.94 471.049 189.36 471.849 190.68C472.689 192 474.189 193.6 476.349 195.48C479.109 197.88 481.009 200.06 482.049 202.02C483.089 203.98 483.609 206.28 483.609 208.92C483.609 212.36 482.749 215 481.029 216.84C479.349 218.68 476.889 219.6 473.649 219.6ZM487.394 177H505.394V183H493.994V194.1H503.054V200.1H493.994V213H505.394V219H487.394V177Z" fill="black"/>
<path d="M250.09 79.8H580.882V84.6H250.09V79.8Z" fill="black"/>
<path d="M181.564 151.8H649.412V156.6H181.564V151.8ZM324.27 223.8H506.714V228.6H324.27V223.8Z" fill="black"/>
<defs>
<filter id="filter0_f_762_642" x="461" y="-10" width="580" height="484" filterUnits="userSpaceOnUse" color-interpolation-filters="sRGB">
<feFlood flood-opacity="0" result="BackgroundImageFix"/>
<feBlend mode="normal" in="SourceGraphic" in2="BackgroundImageFix" result="shape"/>
<feGaussianBlur stdDeviation="20" result="effect1_foregroundBlur_762_642"/>
</filter>
</defs>
</svg>
